# xmcd
#
# Track frame offsets: 
#        150
#        27547
#        39525
#        57762
#        76507
#        99640
#        115547
#        149780
#        164852
#        195422
#        200075
#        222807
#        251395
#        272475
#        296827
#        310157
#
# Disc length: 4474 seconds
#
# Revision: 1
# Processed by: cddbd v1.5.2PL0 Copyright (c) Steve Scherf et al.
# Submitted via: ExactAudioCopy v0.95b4
#
DISCID=eb117810
DTITLE=Various Artist - Circles-mixed by Jazzanova
DYEAR=1998
DGENRE=Nu-Jazz/Acid Jazz/Dance
TTITLE0=Hideo Shiraki and 3 Koto Girls - Matsuri No Genso
TTITLE1=Cal Tjader - Tema Teimoso
TTITLE2=Lexia - Lady Rain
TTITLE3=Egberto Gismoti - Janela De Ouro
TTITLE4=United Future Organization feat. Mark Murphy - Stolen Moments 
TTITLE4=(Our Enchanted Demo)
TTITLE5=Jazzanova feat. Pathless - Fedime's Flight
TTITLE6=Incognito - Jacob's Ladder (Nu Yorican Dub)
TTITLE7=Pathless - Terrace 9
TTITLE8=4Hero - We Who Are Not As Others (Jazzanova Remix)
TTITLE9=George Duke - Statement
TTITLE10=The Indian Trio - Jazz Meets India - Yaad
TTITLE11=Talvin Singh - Traveller (4Hero's Dollis Hill Futebol Mix)
TTITLE12=Ahmen-Ra - Everybody Sometimes (Raw Deal Mix)
TTITLE13=The Style Council - You're The Best Thing
TTITLE14=Heavy Joker - Leaving For Cala Bossa
TTITLE15=Quincy Jones - You've Got It Bad Girl
EXTD=
EXTT0=
EXTT1=
EXTT2=
EXTT3=
EXTT4=
EXTT5=
EXTT6=
EXTT7=
EXTT8=
EXTT9=
EXTT10=
EXTT11=
EXTT12=
EXTT13=
EXTT14=
EXTT15=
PLAYORDER=
